<?xml version="1.0" encoding="utf-8"?>
<!-- Generator: Adobe Illustrator 22.0.0, SVG Export Plug-In . SVG Version: 6.00 Build 0)  -->
<svg version="1.1" id="Layer_1" xmlns="http://www.w3.org/2000/svg" xmlns:xlink="http://www.w3.org/1999/xlink" x="0px" y="0px"
	 viewBox="0 0 282.4 270.6" style="enable-background:new 0 0 282.4 270.6;" xml:space="preserve">
<style type="text/css">
	.st0{clip-path:url(#SVGID_2_);fill:#F3F3F3;}
</style>
<g>
	<g>
		<defs>
			<rect id="SVGID_1_" x="-281" y="-162.6" width="841.9" height="595.3"/>
		</defs>
		<clipPath id="SVGID_2_">
			<use xlink:href="#SVGID_1_"  style="overflow:visible;"/>
		</clipPath>
		<path class="st0" d="M134.5,23c35.2-2.2,64,12.4,82.2,30.5c17.6,17.6,34.2,41.2,35.4,76.7c1.2,34.8-12,62.8-30.5,81.6
			c-18.7,19.1-43.6,33.3-76.2,35.4c-33.6,2.2-62.3-12.9-81.6-30.5c-19.5-17.7-34.7-42.2-35.9-75.6c-1.4-38.3,12.2-62.3,29.9-82.2
			c8.3-9.2,18.5-17.9,31.6-24.5C101.8,28.2,118.1,24,134.5,23 M128,71.4c-8,8.6-5.2,23.3-6.6,39.2h-14.7v24.5H122v71.8h28.9
			c0.3-24-0.7-49.4,0.5-72.4H171c0.5-8.3,1.2-16.2,2.2-24c-7.2-0.4-16,0.7-22.3-0.5c0.6-6.9-1.5-16.3,1.6-20.7
			c5.4-1.8,13.6-0.8,20.7-1.1V63.7C154,64.1,137.1,61.6,128,71.4"/>
	</g>
</g>
</svg>
