<?xml version="1.0" encoding="utf-8"?>
<!-- Generator: Adobe Illustrator 22.0.0, SVG Export Plug-In . SVG Version: 6.00 Build 0)  -->
<svg version="1.1" id="Layer_1" xmlns="http://www.w3.org/2000/svg" xmlns:xlink="http://www.w3.org/1999/xlink" x="0px" y="0px"
	 viewBox="0 0 271.9 273.3" style="enable-background:new 0 0 271.9 273.3;" xml:space="preserve">
<style type="text/css">
	.st0{clip-path:url(#SVGID_2_);fill:#F3F3F3;}
</style>
<g>
	<defs>
		<rect id="SVGID_1_" x="-286" y="-159" width="841.9" height="595.3"/>
	</defs>
	<clipPath id="SVGID_2_">
		<use xlink:href="#SVGID_1_"  style="overflow:visible;"/>
	</clipPath>
	<path class="st0" d="M195.6,100.7c-3.5-14-14.3-22.9-28.9-23.9c-1.3-0.1-2.5-0.3-3.6-0.5c-0.3-0.1-0.7-0.1-1-0.2h-54.4
		c-1,0.1-2,0.3-3,0.4c-2.3,0.3-4.5,0.6-6.6,1c-14.1,3-23.9,14.4-25,28.9c-0.1,1.3-0.3,2.6-0.5,3.8c-0.1,0.4-0.1,0.8-0.2,1.1v54.4
		c0.2,1.1,0.3,2.2,0.5,3.3c0.4,2.6,0.7,5,1.3,7.4c3.5,14,14.3,22.9,28.9,23.9c1.3,0.1,2.5,0.3,3.6,0.5c0.3,0.1,0.7,0.1,1,0.2h54.4
		c1-0.1,2-0.3,3.1-0.4c2.4-0.3,4.6-0.6,6.8-1.1c14.3-3.2,23.8-14.4,24.8-29.1c0.1-1.3,0.3-2.5,0.5-3.6c0.1-0.3,0.1-0.7,0.2-1v-54.4
		c-0.2-1.1-0.3-2.2-0.5-3.4C196.6,105.5,196.2,103.1,195.6,100.7 M135.8,181c-0.8,0-1.6,0-2.4-0.1c-11.4-0.7-22-5.6-29.7-13.8
		c-7.8-8.3-11.7-18.9-11-30c1.4-23.7,21-42.1,43.8-40.7c23.8,1.4,42.1,21.1,40.7,43.8C175.8,163,157.6,181,135.8,181 M185.3,100.3
		c-0.7,3.2-2.9,5.9-5.9,7.2c-1.2,0.5-2.5,0.8-3.8,0.9c-2.7,0-5.2-1.1-7-2.9c-1.9-1.8-3.1-4.3-3.1-7c0-0.7,0-1.3,0.1-2
		c0.6-3.2,2.8-6,5.7-7.3c1.2-0.5,2.5-0.9,3.8-0.9c0.3,0,0.7,0,1,0c0.7,0,1.4,0.2,2,0.3c0.6,0.2,1.3,0.4,1.8,0.7
		c0.9,0.5,1.7,1,2.4,1.7c0.5,0.5,0.9,1,1.3,1.5c1.1,1.6,1.8,3.6,1.8,5.7C185.5,99,185.4,99.7,185.3,100.3"/>
	<path class="st0" d="M135.8,110c-0.5,0-1.1,0-1.6,0c-14.7,0-26.9,12.2-27.8,27.8c-0.4,7.3,2.2,14.4,7.4,20c5.3,5.6,12.5,9,20.4,9.5
		c15.4,0.9,28.5-11.6,29.4-27.8C164.5,124.2,152,111,135.8,110"/>
	<path class="st0" d="M134.9,26.4c-62,0-112.3,50.3-112.3,112.3c0,62,50.3,112.3,112.3,112.3s112.3-50.3,112.3-112.3
		C247.2,76.6,196.9,26.4,134.9,26.4 M212.6,168.4c0,0.3,0,0.5-0.1,0.8c-0.1,0.6-0.2,1.1-0.3,1.7c-0.2,1-0.3,2-0.4,2.8
		c-1.4,20.6-14.7,36.2-34.7,40.7c-2.8,0.6-5.6,1-8.2,1.3c-1.2,0.2-2.3,0.3-3.5,0.5c-0.3,0-0.5,0.1-0.8,0.1h-59.5
		c-0.3,0-0.5,0-0.8-0.1c-0.6-0.1-1.1-0.2-1.7-0.3c-1-0.2-2-0.3-2.9-0.4c-20-1.4-35.5-14.2-40.3-33.5c-0.8-3-1.2-6.1-1.6-9
		c-0.2-1.3-0.4-2.5-0.6-3.8c0-0.3-0.1-0.6-0.1-0.8v-59.5c0-0.2,0-0.5,0.1-0.7c0.1-0.6,0.2-1.2,0.3-1.8c0.2-1.1,0.4-2.2,0.4-3.2
		c1.5-20.3,15.2-36.2,35-40.4c2.7-0.6,5.4-0.9,7.9-1.3c1.1-0.1,2.3-0.3,3.4-0.5c0.2,0,0.5-0.1,0.8-0.1h59.5c0.3,0,0.5,0,0.8,0.1
		c0.6,0.1,1.1,0.2,1.7,0.3c1,0.2,2,0.3,2.8,0.4c20,1.4,35.5,14.2,40.3,33.5c0.8,3,1.2,6,1.6,9c0.2,1.3,0.4,2.6,0.6,3.8
		c0,0.3,0.1,0.6,0.1,0.8V168.4z"/>
</g>
</svg>
