<?xml version="1.0" encoding="utf-8"?>
<!-- Generator: Adobe Illustrator 22.0.0, SVG Export Plug-In . SVG Version: 6.00 Build 0)  -->
<svg version="1.1" id="Layer_1" xmlns="http://www.w3.org/2000/svg" xmlns:xlink="http://www.w3.org/1999/xlink" x="0px" y="0px"
	 viewBox="0 0 271.9 275.3" style="enable-background:new 0 0 271.9 275.3;" xml:space="preserve">
<style type="text/css">
	.st0{clip-path:url(#SVGID_2_);fill:#F3F3F3;}
</style>
<g>
	<g>
		<defs>
			<rect id="SVGID_1_" x="-285" y="-159" width="841.9" height="595.3"/>
		</defs>
		<clipPath id="SVGID_2_">
			<use xlink:href="#SVGID_1_"  style="overflow:visible;"/>
		</clipPath>
		<path class="st0" d="M136,26.3c-62,0-112.4,50.3-112.4,112.4S74,251.1,136,251.1c62.1,0,112.4-50.3,112.4-112.4
			C248.3,76.6,198,26.3,136,26.3 M106.7,181.1H81.4v-71.4h25.3V181.1z M94,96.9c-7.8,0-14.2-6.4-14.2-14.2S86.2,68.5,94,68.5
			c7.8,0,14.2,6.4,14.2,14.2S101.8,96.9,94,96.9 M198.7,181.1h-25.3v-34.8c0-6.8,1.1-18.8-11.4-18.8c-10.3,0-13.2,7.7-13.2,16.6v37
			h-25.3v-71.4h25.3v9.2h0.3c5.9-8.6,13-11.5,22.8-11.5c19.3,0,26.9,12.1,26.9,29.7L198.7,181.1L198.7,181.1z"/>
	</g>
</g>
</svg>
