<?xml version="1.0" encoding="utf-8"?>
<!-- Generator: Adobe Illustrator 22.0.0, SVG Export Plug-In . SVG Version: 6.00 Build 0)  -->
<svg version="1.1" id="Layer_1" xmlns="http://www.w3.org/2000/svg" xmlns:xlink="http://www.w3.org/1999/xlink" x="0px" y="0px"
	 viewBox="0 0 264.9 274.3" style="enable-background:new 0 0 264.9 274.3;" xml:space="preserve">
<style type="text/css">
	.st0{clip-path:url(#SVGID_2_);fill:#F3F3F3;}
</style>
<g>
	<g>
		<defs>
			<rect id="SVGID_1_" x="-289" y="-161" width="841.9" height="595.3"/>
		</defs>
		<clipPath id="SVGID_2_">
			<use xlink:href="#SVGID_1_"  style="overflow:visible;"/>
		</clipPath>
		<path class="st0" d="M131.9,24.3c-62.1,0-112.4,50.3-112.4,112.4s50.3,112.4,112.4,112.4c62,0,112.4-50.3,112.4-112.4
			S194,24.3,131.9,24.3 M201.9,111.4c0,48.5-39.3,87.8-87.8,87.8c-21.1,0-40.5-7.4-55.6-19.9c0.3,0,0.6,0,0.9,0
			c5.9,3.2,12.5,5,19.6,5c13.5,0,25.8-6.8,33.4-17.1c-6.9,1.4-14.5,0-20.5-4.7c-4.3-3.3-7.3-7.7-8.8-12.6c4.2,0.7,8.4,0.8,12.7,0.4
			c-8.9-1.4-16.8-7.1-20.8-15.9c-2.5-5.5-3-11.3-2-16.7c4.5,3.5,9.6,6.1,14.9,8c-9.2-6.1-15.3-16.7-15.3-28.6c0-7.3,2.3-14.4,6.3-20
			c10.9,20.4,32.3,34.9,56.5,34.9h5.5c-0.1-5.8-0.3-8.2-0.3-8.9c-0.1,0.9-0.3,1.9-0.3,2.8c0,0.5,0,0.7,0,0.3c0-0.1,0-0.2,0-0.3
			c0.1-1.2,0.2-3.8,0.3-2.8c1.6-15.4,14.5-26.9,30.3-26.9c8.6,0,16.3,3.5,21.9,9.2l20.4-6.2l-13,14.6c0,0.2,0.1,0.3,0.1,0.5
			l15.6-2.9l-14,16C201.9,108.8,201.9,110.1,201.9,111.4"/>
	</g>
</g>
</svg>
